Coordinates
version=1
nRows=13
nColumns=30
inDegrees=yes

Units are S.I. units (second, meters, Newtons, ...)
Angles are in degrees.

endheader
time	floatyaw	floatroll	floatpitch	floatx	floaty	floatz	pro_sup_l	deviation_l	flexion_l	cmc_flexion_l	cmc_abduction_l	mp_flexion_l	ip_flexion_l	2mcp_flexion_l	2mcp_abduction_l	2pm_flexion_l	2md_flexion_l	3mcp_flexion_l	3mcp_abduction_l	3pm_flexion_l	3md_flexion_l	4mcp_flexion_l	4mcp_abduction_l	4pm_flexion_l	4md_flexion_l	5mcp_flexion_l	5mcp_abduction_l	5pm_flexion_l	5md_flexion_l
-1.495000	-2.367547	-3.808797	97.590660	-0.101584	-0.188606	-0.033970	86.568168	2.618476	-1.220617	13.789904	7.834738	-21.999957	-34.356537	38.534641	10.813281	46.607953	32.662098	22.448171	5.558777	45.855509	31.994355	11.498529	-4.587574	61.041898	41.974537	6.525084	-11.747884	60.915240	41.996428
-1.485000	-2.367547	-3.808797	97.590660	-0.101582	-0.188627	-0.033981	86.553073	2.618044	-1.231918	13.764384	7.805128	-22.010227	-34.354441	38.542842	10.814776	46.621518	32.671970	22.454226	5.565953	45.862581	32.006849	11.494100	-4.587660	61.055665	41.987799	6.519940	-11.756837	60.924558	41.989786
-1.475000	-2.367547	-3.808797	97.590660	-0.101579	-0.188644	-0.033994	86.544794	2.621029	-1.240999	13.738054	7.768582	-22.018297	-34.349540	38.550835	10.812746	46.641296	32.683248	22.466921	5.570658	45.873718	32.020363	11.489903	-4.588950	61.074022	42.003790	6.510563	-11.753929	60.934688	41.982344
-1.465000	-2.367547	-3.808797	97.590660	-0.101575	-0.188652	-0.034006	86.539435	2.626105	-1.246178	13.712062	7.733647	-22.027094	-34.346302	38.563910	10.805816	46.663431	32.692791	22.483744	5.572049	45.890675	32.034767	11.486307	-4.590173	61.095692	42.020784	6.499259	-11.740131	60.950445	41.976195
-1.455000	-2.367547	-3.808797	97.590660	-0.101572	-0.188653	-0.034019	86.532570	2.631877	-1.247437	13.687204	7.707559	-22.038775	-34.348485	38.587282	10.794368	46.680992	32.696451	22.501085	5.570347	45.910959	32.048452	11.480492	-4.589646	61.120049	42.037863	6.488845	-11.721781	60.975581	41.974042
-1.445000	-2.367547	-3.808797	97.590660	-0.101569	-0.188650	-0.034032	86.520704	2.637238	-1.246017	13.663806	7.692918	-22.053106	-34.356771	38.622642	10.780452	46.686401	32.690779	22.515580	5.566665	45.928588	32.058927	11.468429	-4.586077	61.146537	42.054896	6.482091	-11.708199	61.011428	41.978124
-1.435000	-2.367547	-3.808797	97.590660	-0.101567	-0.188645	-0.034045	86.502739	2.641511	-1.243314	13.641788	7.687253	-22.067210	-34.368060	38.666180	10.766943	46.675128	32.674980	22.524904	5.562447	45.937482	32.064334	11.448055	-4.579292	61.173711	42.071804	6.481185	-11.707433	61.055877	41.988723
-1.425000	-2.367547	-3.808797	97.590660	-0.101569	-0.188642	-0.034056	86.480729	2.644415	-1.240023	13.620819	7.685347	-22.076958	-34.376921	38.709680	10.756382	46.648407	32.651876	22.528016	5.558801	45.935395	32.064871	11.421517	-4.570597	61.198924	42.087790	6.486839	-11.721934	61.103806	42.003477
-1.415000	-2.367547	-3.808797	97.590660	-0.101572	-0.188639	-0.034066	86.459032	2.645855	-1.236158	13.600496	7.682586	-22.079296	-34.378442	38.744129	10.750027	46.613295	32.627222	22.525048	5.556090	45.925771	32.063105	11.394757	-4.562472	61.219200	42.101291	6.497477	-11.746800	61.148965	42.018061
-1.405000	-2.367547	-3.808797	97.590660	-0.101577	-0.188636	-0.034073	86.442006	2.645637	-1.231749	13.580478	7.677206	-22.074062	-34.370819	38.763650	10.747479	46.579973	32.607667	22.516993	5.554058	45.916188	32.062886	11.374511	-4.557584	61.232887	42.110824	6.509471	-11.772128	61.186142	42.027814
-1.395000	-2.367547	-3.808797	97.590660	-0.101580	-0.188632	-0.034074	86.431734	2.643422	-1.227491	13.560562	7.670137	-22.064101	-34.356144	38.767534	10.747019	46.557713	32.598306	22.505409	5.552332	45.914283	32.067394	11.364677	-4.557536	61.240911	42.116115	6.518871	-11.788332	61.212593	42.029376
-1.385000	-2.367547	-3.808797	97.590660	-0.101582	-0.188628	-0.034070	86.427484	2.639115	-1.224792	13.540733	7.662740	-22.053618	-34.339040	38.759498	10.746585	46.551519	32.600956	22.492368	5.550849	45.923692	32.077463	11.364410	-4.562081	61.246649	42.118620	6.523825	-11.791145	61.228375	42.021530
-1.375000	-2.367547	-3.808797	97.590660	-0.101581	-0.188625	-0.034062	86.427176	2.633400	-1.225190	13.521241	7.654322	-22.045961	-34.324177	38.745000	10.744934	46.560894	32.613875	22.480506	5.549886	45.942486	32.091167	11.368978	-4.569221	61.254255	42.120926	6.525998	-11.783274	61.235722	42.004995
